HIERARCHY
ROOT Hips
{
  OFFSET 15.4817 39.7232 -8.35287
  CHANNELS 6 Xposition Yposition Zposition Zrotation Xrotation Yrotation
  JOINT LeftHip
  {
    OFFSET 3.43 0 0
    CHANNELS 6 Xposition Yposition Zposition Zrotation Xrotation Yrotation
    JOINT LeftKnee
    {
      OFFSET 0 -18.47 0
      CHANNELS 6 Xposition Yposition Zposition Zrotation Xrotation Yrotation
      JOINT LeftAnkle
      {
        OFFSET 0 -17.95 0
        CHANNELS 6 Xposition Yposition Zposition Zrotation Xrotation Yrotation
        End Site
        {
          OFFSET 0 -3.12 0
        }
      }
    }
  }
  JOINT RightHip
  {
    OFFSET -3.43 0 0
    CHANNELS 6 Xposition Yposition Zposition Zrotation Xrotation Yrotation
    JOINT RightKnee
    {
      OFFSET 0 -18.47 0
      CHANNELS 6 Xposition Yposition Zposition Zrotation Xrotation Yrotation
      JOINT RightAnkle
      {
        OFFSET 0 -17.95 0
        CHANNELS 6 Xposition Yposition Zposition Zrotation Xrotation Yrotation
        End Site
        {
          OFFSET 0 -3.12 0
        }
      }
    }
  }
  JOINT Chest
  {
    OFFSET 0 4.57 0
    CHANNELS 6 Xposition Yposition Zposition Zrotation Xrotation Yrotation
    JOINT CS_BVH
    {
      OFFSET 0 6.57 0
      CHANNELS 6 Xposition Yposition Zposition Zrotation Xrotation Yrotation
      JOINT LeftCollar
      {
        OFFSET 1.06 4.19 1.76
        CHANNELS 6 Xposition Yposition Zposition Zrotation Xrotation Yrotation
        JOINT LeftShoulder
        {
          OFFSET 5.81 0 0
          CHANNELS 6 Xposition Yposition Zposition Zrotation Xrotation Yrotation
          JOINT LeftElbow
          {
            OFFSET 0 -12.08 0
            CHANNELS 6 Xposition Yposition Zposition Zrotation Xrotation Yrotation
            JOINT LeftWrist
            {
              OFFSET 0 -9.82 0
              CHANNELS 6 Xposition Yposition Zposition Zrotation Xrotation Yrotation
              End Site
              {
                OFFSET 0 -7.37 0
              }
            }
          }
        }
      }
      JOINT RightCollar
      {
        OFFSET -1.06 4.19 1.76
        CHANNELS 6 Xposition Yposition Zposition Zrotation Xrotation Yrotation
        JOINT RightShoulder
        {
          OFFSET -6.06 0 0
          CHANNELS 6 Xposition Yposition Zposition Zrotation Xrotation Yrotation
          JOINT RightElbow
          {
            OFFSET 0 -11.08 0
            CHANNELS 6 Xposition Yposition Zposition Zrotation Xrotation Yrotation
            JOINT RightWrist
            {
              OFFSET 0 -9.82 0
              CHANNELS 6 Xposition Yposition Zposition Zrotation Xrotation Yrotation
              End Site
              {
                OFFSET 0 -7.14001 0
              }
            }
          }
        }
      }
      JOINT Neck
      {
        OFFSET 0 4.05 0
        CHANNELS 6 Xposition Yposition Zposition Zrotation Xrotation Yrotation
        JOINT Head
        {
          OFFSET 0 5.19 0
          CHANNELS 6 Xposition Yposition Zposition Zrotation Xrotation Yrotation
          End Site
          {
            OFFSET 0 4.14001 0
          }
        }
      }
    }
  }
}
MOTION
Frames:	7
Frame Time:	0.0333333
0.442515 40.102 9.33613 -5.66467 8.65 -16.7572 3.43 9.12756e-010 -1.60032e-011 9.69094 -18.0343 0.696188 1.57372e-008 -18.47 1.10541e-007 2.88625 17.7006 -0.713179 1.5558e-008 -17.95 3.38894e-008 -1.49689 -9.34769 -0.302504 -3.43 -9.12749e-010 1.60023e-011 8.92556 -13.029 5.92886 4.27853e-008 -18.47 -1.42709e-007 1.87692 22.5173 -0.119736 -2.59563e-008 -17.95 2.98131e-008 1.07454 -10.1454 0.282194 -1.05168e-009 4.57 4.29798e-011 -18.1664 22.1405 3.7526 -1.67976e-009 6.57 2.67812e-010 -7.30564 -4.56015 1.88076 1.06 4.19 1.76 -35.3223 0.579745 -0.842114 5.81 -5.77685e-010 -2.42139e-010 56.8293 -14.0096 -12.3155 -4.70036e-009 -12.08 6.73172e-010 7.65958 -13.7117 0.57146 -1.10605e-009 -9.82 -1.29618e-009 9.47648e-011 -5.7731e-011 9.48049e-010 -1.06 4.19 1.76 10.6048 -0.397212 -6.85411 -6.06 -5.89036e-008 -4.70616e-010 -19.7715 -13.2666 39.6739 -7.10448e-009 -11.08 -5.62306e-011 4.12251 -26.4317 22.9148 -1.10928e-009 -9.82 1.29577e-009 17.2648 1.97682 -18.1238 4.66962e-010 4.05 1.19922e-010 -15.8497 -22.8959 -3.2672 3.38399e-009 5.19 -2.27068e-010 -8.40442 0.435094 -2.33599 
0.36191 40.1694 9.30984 -6.32131 9.6512 -16.1457 3.43 9.12756e-010 -1.60032e-011 10.7072 -18.8485 1.01513 1.57372e-008 -18.47 1.10541e-007 3.0437 17.4978 -0.74084 1.5558e-008 -17.95 3.38894e-008 -1.50264 -9.24101 -0.301468 -3.43 -9.12749e-010 1.60023e-011 9.80542 -13.8675 6.43134 4.27853e-008 -18.47 -1.42709e-007 2.00579 22.6057 -0.145568 -2.59563e-008 -17.95 2.98131e-008 1.06133 -10.2057 0.28264 -1.05168e-009 4.57 4.29798e-011 -18.5157 22.6286 3.85483 -1.67976e-009 6.57 2.67812e-010 -7.08707 -4.73931 1.77206 1.06 4.19 1.76 -36.0186 0.582796 -0.826049 5.81 -5.77685e-010 -2.42139e-010 57.6486 -13.9465 -12.2691 -4.70036e-009 -12.08 6.73172e-010 7.85157 -13.9104 0.603275 -1.10605e-009 -9.82 -1.29618e-009 9.47648e-011 -5.7731e-011 9.48049e-010 -1.06 4.19 1.76 10.6513 -0.399261 -6.77706 -6.06 -5.89036e-008 -4.70616e-010 -19.8811 -13.2069 40.191 -7.10448e-009 -11.08 -5.62306e-011 4.3029 -26.7851 22.8045 -1.10928e-009 -9.82 1.29577e-009 17.9416 1.99132 -18.5848 4.66962e-010 4.05 1.19922e-010 -16.6165 -23.0507 -3.48836 3.38399e-009 5.19 -2.27068e-010 -7.47436 0.605275 -2.78483 
0.303293 40.221 9.31204 -6.99424 10.5598 -15.495 3.43 9.12756e-010 -1.60032e-011 11.5817 -19.6084 1.19705 1.57372e-008 -18.47 1.10541e-007 3.25744 17.3495 -0.788954 1.5558e-008 -17.95 3.38894e-008 -1.51704 -9.10664 -0.300456 -3.43 -9.12749e-010 1.60023e-011 10.4994 -14.5381 6.85696 4.27853e-008 -18.47 -1.42709e-007 2.02289 22.675 -0.139192 -2.59563e-008 -17.95 2.98131e-008 1.03696 -10.3113 0.28312 -1.05168e-009 4.57 4.29798e-011 -18.6828 23.0518 3.92002 -1.67976e-009 6.57 2.67812e-010 -6.92657 -4.81822 1.65963 1.06 4.19 1.76 -36.3056 0.58475 -0.822168 5.81 -5.77685e-010 -2.42139e-010 57.9935 -14.114 -12.199 -4.70036e-009 -12.08 6.73172e-010 8.06451 -14.0982 0.630788 -1.10605e-009 -9.82 -1.29618e-009 9.47648e-011 -5.7731e-011 9.48049e-010 -1.06 4.19 1.76 10.7455 -0.399336 -6.71904 -6.06 -5.89036e-008 -4.70616e-010 -20.0398 -13.1453 40.6225 -7.10448e-009 -11.08 -5.62306e-011 4.49141 -27.061 22.6569 -1.10928e-009 -9.82 1.29577e-009 18.5322 2.05946 -18.6959 4.66962e-010 4.05 1.19922e-010 -17.1396 -22.9026 -3.73581 3.38399e-009 5.19 -2.27068e-010 -6.78957 0.411756 -3.25913 
0.2643 40.256 9.35088 -7.59625 11.2364 -14.8779 3.43 9.12756e-010 -1.60032e-011 12.2418 -20.2143 1.27143 1.57372e-008 -18.47 1.10541e-007 3.47896 17.3654 -0.851836 1.5558e-008 -17.95 3.38894e-008 -1.52735 -8.98864 -0.299515 -3.43 -9.12749e-010 1.60023e-011 10.9008 -14.8689 7.16792 4.27853e-008 -18.47 -1.42709e-007 1.87815 22.6463 -0.0958538 -2.59563e-008 -17.95 2.98131e-008 1.01537 -10.4153 0.283589 -1.05168e-009 4.57 4.29798e-011 -18.8426 23.5414 4.00193 -1.67976e-009 6.57 2.67812e-010 -6.82839 -4.87829 1.56005 1.06 4.19 1.76 -36.3178 0.586553 -0.822304 5.81 -5.77685e-010 -2.42139e-010 58.1027 -14.4455 -12.1877 -4.70036e-009 -12.08 6.73172e-010 8.20558 -14.257 0.656691 -1.10605e-009 -9.82 -1.29618e-009 9.47648e-011 -5.7731e-011 9.48049e-010 -1.06 4.19 1.76 10.8835 -0.397863 -6.75906 -6.06 -5.89036e-008 -4.70616e-010 -20.2371 -13.1262 40.9496 -7.10448e-009 -11.08 -5.62306e-011 4.6671 -27.2437 22.6098 -1.10928e-009 -9.82 1.29577e-009 18.9827 2.15968 -18.5472 4.66962e-010 4.05 1.19922e-010 -17.2053 -22.7941 -4.09528 3.38399e-009 5.19 -2.27068e-010 -6.49111 0.35972 -3.68644 
0.240573 40.2703 9.42497 -8.06101 11.6792 -14.3185 3.43 9.12756e-010 -1.60032e-011 12.6732 -20.6734 1.26913 1.57372e-008 -18.47 1.10541e-007 3.65458 17.5529 -0.916992 1.5558e-008 -17.95 3.38894e-008 -1.53286 -8.90361 -0.298664 -3.43 -9.12749e-010 1.60023e-011 10.9947 -14.9167 7.32553 4.27853e-008 -18.47 -1.42709e-007 1.63923 22.5677 -0.0325485 -2.59563e-008 -17.95 2.98131e-008 0.993479 -10.5271 0.284054 -1.05168e-009 4.57 4.29798e-011 -19.1385 24.0996 4.11742 -1.67976e-009 6.57 2.67812e-010 -6.64581 -4.99381 1.44266 1.06 4.19 1.76 -36.7456 0.593088 -0.823621 5.81 -5.77685e-010 -2.42139e-010 58.8536 -14.8309 -12.332 -4.70036e-009 -12.08 6.73172e-010 8.0973 -14.3602 0.686983 -1.10605e-009 -9.82 -1.29618e-009 9.47648e-011 -5.7731e-011 9.48049e-010 -1.06 4.19 1.76 10.9579 -0.395391 -6.82959 -6.06 -5.89036e-008 -4.70616e-010 -20.3887 -13.1297 41.0997 -7.10448e-009 -11.08 -5.62306e-011 4.77339 -27.2856 22.7522 -1.10928e-009 -9.82 1.29577e-009 19.123 2.23686 -18.2844 4.66962e-010 4.05 1.19922e-010 -17.0602 -22.7976 -4.54973 3.38399e-009 5.19 -2.27068e-010 -6.3287 0.56022 -4.11123 
0.229376 40.2667 9.52529 -8.38609 11.9964 -13.7993 3.43 9.12756e-010 -1.60032e-011 12.9028 -21.0421 1.17967 1.57372e-008 -18.47 1.10541e-007 3.79364 17.7947 -0.98023 1.5558e-008 -17.95 3.38894e-008 -1.53598 -8.82316 -0.297887 -3.43 -9.12749e-010 1.60023e-011 10.8889 -14.8721 7.3414 4.27853e-008 -18.47 -1.42709e-007 1.41947 22.5212 0.0281864 -2.59563e-008 -17.95 2.98131e-008 0.969611 -10.661 0.284524 -1.05168e-009 4.57 4.29798e-011 -19.5373 24.59 4.24375 -1.67976e-009 6.57 2.67812e-010 -6.31119 -5.12503 1.29965 1.06 4.19 1.76 -37.7686 0.611203 -0.823282 5.81 -5.77685e-010 -2.42139e-010 60.4216 -15.2948 -12.5667 -4.70036e-009 -12.08 6.73172e-010 7.74882 -14.4053 0.718024 -1.10605e-009 -9.82 -1.29618e-009 9.47648e-011 -5.7731e-011 9.48049e-010 -1.06 4.19 1.76 10.9116 -0.392478 -6.84894 -6.06 -5.89036e-008 -4.70616e-010 -20.486 -13.1013 41.1302 -7.10448e-009 -11.08 -5.62306e-011 4.77778 -27.3134 22.7662 -1.10928e-009 -9.82 1.29577e-009 19.0428 2.25045 -18.1598 4.66962e-010 4.05 1.19922e-010 -17.1016 -22.7605 -4.99952 3.38399e-009 5.19 -2.27068e-010 -5.85105 0.76978 -4.62884 
0.22452 40.2554 9.63669 -8.61702 12.3128 -13.3289 3.43 9.12756e-010 -1.60032e-011 13.0197 -21.4041 1.03041 1.57372e-008 -18.47 1.10541e-007 3.92077 18.0317 -1.0423 1.5558e-008 -17.95 3.38894e-008 -1.53819 -8.74455 -0.297188 -3.43 -9.12749e-010 1.60023e-011 10.7754 -14.9165 7.32636 4.27853e-008 -18.47 -1.42709e-007 1.28067 22.5658 0.0740692 -2.59563e-008 -17.95 2.98131e-008 0.945483 -10.81 0.284991 -1.05168e-009 4.57 4.29798e-011 -19.8501 24.876 4.33382 -1.67976e-009 6.57 2.67812e-010 -5.96985 -5.20863 1.17491 1.06 4.19 1.76 -38.6986 0.617992 -0.818447 5.81 -5.77685e-010 -2.42139e-010 61.9048 -15.8906 -12.7578 -4.70036e-009 -12.08 6.73172e-010 7.43679 -14.4731 0.748682 -1.10605e-009 -9.82 -1.29618e-009 9.47648e-011 -5.7731e-011 9.48049e-010 -1.06 4.19 1.76 10.843 -0.389598 -6.83884 -6.06 -5.89036e-008 -4.70616e-010 -20.6508 -13.0245 41.1937 -7.10448e-009 -11.08 -5.62306e-011 4.68795 -27.5209 22.441 -1.10928e-009 -9.82 1.29577e-009 19.0177 2.21563 -18.3066 4.66962e-010 4.05 1.19922e-010 -17.3979 -22.7745 -5.4221 3.38399e-009 5.19 -2.27068e-010 -4.91482 1.09122 -5.23657 
